# xmcd
# Track frame offsets:
# 183
# 14853
# 34793
# 52795
# 54840
# 78910
# 80408
# 96508
# 98845
# 116858
# 125463
# 150905
#
# Disc length: 2129 seconds
# Revision: 2
# Processed by: cddbd v1.4PL0 Copyright (c) Steve Scherf et al.
# Submitted via: VisiTrax 2.9.5.181 - For more info visit www.synapsa.com
#
DISCID=8d084f0c
DTITLE=Andr  Christovam - A touch of glass
DYEAR=1990
DGENRE=
TTITLE0=Wolf and Sheep
TTITLE1=Leave My Money Alone
TTITLE2=The Stumble
TTITLE3=Santa Cec lia
TTITLE4=Love Jar Blues
TTITLE5=Edo
TTITLE6=Flag Pole
TTITLE7=Tintagel
TTITLE8=One Kind Favor
TTITLE9=Oh! Captain My Captain
TTITLE10=Brown Candles
TTITLE11=Oh! Captain My Captain
EXTD=
EXTT0=
EXTT1=
EXTT2=
EXTT3=
EXTT4=
EXTT5=
EXTT6=
EXTT7=
EXTT8=
EXTT9=
EXTT10=
EXTT11=
PLAYORDER=
